<mxfile host="65bd71144e">
    <diagram name="Page-1" id="UlzZYzaXb5LIW5Xjwv1o">
        <mxGraphModel dx="1055" dy="584" grid="1" gridSize="10" guides="1" tooltips="1" connect="1" arrows="1" fold="1" page="1" pageScale="1" pageWidth="850" pageHeight="1100" math="0" shadow="0">
            <root>
                <mxCell id="0"/>
                <mxCell id="1" parent="0"/>
                <mxCell id="3NjbLV-J0CDQwwyRlYav-13" style="edgeStyle=orthogonalEdgeStyle;rounded=0;orthogonalLoop=1;jettySize=auto;html=1;entryX=0.5;entryY=0;entryDx=0;entryDy=0;" parent="1" source="3NjbLV-J0CDQwwyRlYav-1" target="3NjbLV-J0CDQwwyRlYav-9" edge="1">
                    <mxGeometry relative="1" as="geometry"/>
                </mxCell>
                <mxCell id="3NjbLV-J0CDQwwyRlYav-1" value="Login" style="swimlane;fontStyle=1;align=center;verticalAlign=top;childLayout=stackLayout;horizontal=1;startSize=26;horizontalStack=0;resizeParent=1;resizeParentMax=0;resizeLast=0;collapsible=1;marginBottom=0;whiteSpace=wrap;html=1;" parent="1" vertex="1">
                    <mxGeometry x="60" y="290" width="240" height="120" as="geometry"/>
                </mxCell>
                <mxCell id="3NjbLV-J0CDQwwyRlYav-2" value="+ isValid: bln: false" style="text;strokeColor=none;fillColor=none;align=left;verticalAlign=top;spacingLeft=4;spacingRight=4;overflow=hidden;rotatable=0;points=[[0,0.5],[1,0.5]];portConstraint=eastwest;whiteSpace=wrap;html=1;" parent="3NjbLV-J0CDQwwyRlYav-1" vertex="1">
                    <mxGeometry y="26" width="240" height="26" as="geometry"/>
                </mxCell>
                <mxCell id="3NjbLV-J0CDQwwyRlYav-3" value="" style="line;strokeWidth=1;fillColor=none;align=left;verticalAlign=middle;spacingTop=-1;spacingLeft=3;spacingRight=3;rotatable=0;labelPosition=right;points=[];portConstraint=eastwest;strokeColor=inherit;" parent="3NjbLV-J0CDQwwyRlYav-1" vertex="1">
                    <mxGeometry y="52" width="240" height="8" as="geometry"/>
                </mxCell>
                <mxCell id="3NjbLV-J0CDQwwyRlYav-4" value="- isValid(username: str, password: str): bln&lt;div&gt;+ setIsValild(isValid)&lt;/div&gt;&lt;div&gt;+ getIsValid(): bln&lt;/div&gt;" style="text;strokeColor=none;fillColor=none;align=left;verticalAlign=top;spacingLeft=4;spacingRight=4;overflow=hidden;rotatable=0;points=[[0,0.5],[1,0.5]];portConstraint=eastwest;whiteSpace=wrap;html=1;" parent="3NjbLV-J0CDQwwyRlYav-1" vertex="1">
                    <mxGeometry y="60" width="240" height="60" as="geometry"/>
                </mxCell>
                <mxCell id="3NjbLV-J0CDQwwyRlYav-9" value="Empleado" style="swimlane;fontStyle=0;childLayout=stackLayout;horizontal=1;startSize=26;fillColor=none;horizontalStack=0;resizeParent=1;resizeParentMax=0;resizeLast=0;collapsible=1;marginBottom=0;whiteSpace=wrap;html=1;" parent="1" vertex="1">
                    <mxGeometry x="110" y="449" width="140" height="160" as="geometry"/>
                </mxCell>
                <mxCell id="3NjbLV-J0CDQwwyRlYav-10" value="+ nombre: str&lt;div&gt;+ apellido: str&lt;/div&gt;&lt;div&gt;+ correo: str&lt;/div&gt;&lt;div&gt;+ contraseÃ±a: str&lt;/div&gt;&lt;div&gt;+ telefono: str&lt;/div&gt;&lt;div&gt;+ direccion: str&lt;/div&gt;&lt;div&gt;+ estado: str&lt;/div&gt;&lt;div&gt;+ puesto: int&lt;/div&gt;" style="text;strokeColor=none;fillColor=none;align=left;verticalAlign=top;spacingLeft=4;spacingRight=4;overflow=hidden;rotatable=0;points=[[0,0.5],[1,0.5]];portConstraint=eastwest;whiteSpace=wrap;html=1;" parent="3NjbLV-J0CDQwwyRlYav-9" vertex="1">
                    <mxGeometry y="26" width="140" height="134" as="geometry"/>
                </mxCell>
                <mxCell id="90" value="Venta" style="swimlane;fontStyle=0;childLayout=stackLayout;horizontal=1;startSize=26;fillColor=none;horizontalStack=0;resizeParent=1;resizeParentMax=0;resizeLast=0;collapsible=1;marginBottom=0;whiteSpace=wrap;html=1;" vertex="1" parent="1">
                    <mxGeometry x="365" y="360" width="160" height="166" as="geometry"/>
                </mxCell>
                <mxCell id="91" value="+ Id: int" style="text;html=1;strokeColor=none;fillColor=none;align=left;verticalAlign=top;whiteSpace=wrap;rounded=0;" vertex="1" parent="90">
                    <mxGeometry y="26" width="160" height="20" as="geometry"/>
                </mxCell>
                <mxCell id="92" value="+ FechaVenta: DateTime" style="text;html=1;strokeColor=none;fillColor=none;align=left;verticalAlign=top;whiteSpace=wrap;rounded=0;" vertex="1" parent="90">
                    <mxGeometry y="46" width="160" height="20" as="geometry"/>
                </mxCell>
                <mxCell id="93" value="+ EmpleadoId: int" style="text;html=1;strokeColor=none;fillColor=none;align=left;verticalAlign=top;whiteSpace=wrap;rounded=0;" vertex="1" parent="90">
                    <mxGeometry y="66" width="160" height="20" as="geometry"/>
                </mxCell>
                <mxCell id="94" value="+ Empleado: Empleado" style="text;html=1;strokeColor=none;fillColor=none;align=left;verticalAlign=top;whiteSpace=wrap;rounded=0;" vertex="1" parent="90">
                    <mxGeometry y="86" width="160" height="20" as="geometry"/>
                </mxCell>
                <mxCell id="95" value="+ ClienteId: int" style="text;html=1;strokeColor=none;fillColor=none;align=left;verticalAlign=top;whiteSpace=wrap;rounded=0;" vertex="1" parent="90">
                    <mxGeometry y="106" width="160" height="20" as="geometry"/>
                </mxCell>
                <mxCell id="96" value="+ Cliente: Cliente" style="text;html=1;strokeColor=none;fillColor=none;align=left;verticalAlign=top;whiteSpace=wrap;rounded=0;" vertex="1" parent="90">
                    <mxGeometry y="126" width="160" height="20" as="geometry"/>
                </mxCell>
                <mxCell id="97" value="+ Importe: decimal" style="text;html=1;strokeColor=none;fillColor=none;align=left;verticalAlign=top;whiteSpace=wrap;rounded=0;" vertex="1" parent="90">
                    <mxGeometry y="146" width="160" height="20" as="geometry"/>
                </mxCell>
                <mxCell id="98" value="Punto de Venta" style="html=1;fontStyle=1" vertex="1" parent="1">
                    <mxGeometry x="390" y="280" width="110" height="50" as="geometry"/>
                </mxCell>
                <mxCell id="101" value="" style="endArrow=none;html=1;entryX=0;entryY=0.5;entryDx=0;entryDy=0;exitX=0.998;exitY=0.132;exitDx=0;exitDy=0;exitPerimeter=0;" edge="1" parent="1" source="3NjbLV-J0CDQwwyRlYav-1" target="98">
                    <mxGeometry width="50" height="50" relative="1" as="geometry">
                        <mxPoint x="330" y="363" as="sourcePoint"/>
                        <mxPoint x="380" y="313" as="targetPoint"/>
                    </mxGeometry>
                </mxCell>
                <mxCell id="102" value="" style="endArrow=none;html=1;entryX=0.5;entryY=1;entryDx=0;entryDy=0;exitX=0.5;exitY=0;exitDx=0;exitDy=0;" edge="1" parent="1" source="90" target="98">
                    <mxGeometry width="50" height="50" relative="1" as="geometry">
                        <mxPoint x="390" y="380" as="sourcePoint"/>
                        <mxPoint x="440" y="330" as="targetPoint"/>
                    </mxGeometry>
                </mxCell>
                <mxCell id="130" value="" style="group" vertex="1" connectable="0" parent="1">
                    <mxGeometry x="640" y="130" width="830" height="596" as="geometry"/>
                </mxCell>
                <mxCell id="3NjbLV-J0CDQwwyRlYav-20" value="Categoria" style="swimlane;fontStyle=0;childLayout=stackLayout;horizontal=1;startSize=26;fillColor=none;horizontalStack=0;resizeParent=1;resizeParentMax=0;resizeLast=0;collapsible=1;marginBottom=0;whiteSpace=wrap;html=1;" parent="130" vertex="1">
                    <mxGeometry x="370" width="140" height="126" as="geometry"/>
                </mxCell>
                <mxCell id="3NjbLV-J0CDQwwyRlYav-24" value="+ Id: int?" style="text;html=1;strokeColor=none;fillColor=none;align=left;verticalAlign=top;whiteSpace=wrap;rounded=0;" parent="3NjbLV-J0CDQwwyRlYav-20" vertex="1">
                    <mxGeometry y="26" width="140" height="20" as="geometry"/>
                </mxCell>
                <mxCell id="3NjbLV-J0CDQwwyRlYav-28" value="+ Productos: List" style="text;html=1;strokeColor=none;fillColor=none;align=left;verticalAlign=top;whiteSpace=wrap;rounded=0;" parent="3NjbLV-J0CDQwwyRlYav-20" vertex="1">
                    <mxGeometry y="46" width="140" height="20" as="geometry"/>
                </mxCell>
                <mxCell id="3NjbLV-J0CDQwwyRlYav-27" value="+ Materiales: List" style="text;html=1;strokeColor=none;fillColor=none;align=left;verticalAlign=top;whiteSpace=wrap;rounded=0;" parent="3NjbLV-J0CDQwwyRlYav-20" vertex="1">
                    <mxGeometry y="66" width="140" height="20" as="geometry"/>
                </mxCell>
                <mxCell id="3NjbLV-J0CDQwwyRlYav-26" value="+ Descripcion: string" style="text;html=1;strokeColor=none;fillColor=none;align=left;verticalAlign=top;whiteSpace=wrap;rounded=0;" parent="3NjbLV-J0CDQwwyRlYav-20" vertex="1">
                    <mxGeometry y="86" width="140" height="20" as="geometry"/>
                </mxCell>
                <mxCell id="3NjbLV-J0CDQwwyRlYav-25" value="+ Nombre: string" style="text;html=1;strokeColor=none;fillColor=none;align=left;verticalAlign=top;whiteSpace=wrap;rounded=0;" parent="3NjbLV-J0CDQwwyRlYav-20" vertex="1">
                    <mxGeometry y="106" width="140" height="20" as="geometry"/>
                </mxCell>
                <mxCell id="3NjbLV-J0CDQwwyRlYav-34" value="Cliente" style="swimlane;fontStyle=0;childLayout=stackLayout;horizontal=1;startSize=26;fillColor=none;horizontalStack=0;resizeParent=1;resizeParentMax=0;resizeLast=0;collapsible=1;marginBottom=0;whiteSpace=wrap;html=1;" parent="130" vertex="1">
                    <mxGeometry x="690" y="320" width="140" height="106" as="geometry"/>
                </mxCell>
                <mxCell id="3NjbLV-J0CDQwwyRlYav-30" value="+ Id: int?" style="text;html=1;strokeColor=none;fillColor=none;align=left;verticalAlign=top;whiteSpace=wrap;rounded=0;" parent="3NjbLV-J0CDQwwyRlYav-34" vertex="1">
                    <mxGeometry y="26" width="140" height="20" as="geometry"/>
                </mxCell>
                <mxCell id="3NjbLV-J0CDQwwyRlYav-31" value="+ Nombre: string" style="text;html=1;strokeColor=none;fillColor=none;align=left;verticalAlign=top;whiteSpace=wrap;rounded=0;" parent="3NjbLV-J0CDQwwyRlYav-34" vertex="1">
                    <mxGeometry y="46" width="140" height="20" as="geometry"/>
                </mxCell>
                <mxCell id="3NjbLV-J0CDQwwyRlYav-32" value="+ Telefono: string" style="text;html=1;strokeColor=none;fillColor=none;align=left;verticalAlign=top;whiteSpace=wrap;rounded=0;" parent="3NjbLV-J0CDQwwyRlYav-34" vertex="1">
                    <mxGeometry y="66" width="140" height="20" as="geometry"/>
                </mxCell>
                <mxCell id="3NjbLV-J0CDQwwyRlYav-33" value="+ ventas: List" style="text;html=1;strokeColor=none;fillColor=none;align=left;verticalAlign=top;whiteSpace=wrap;rounded=0;" parent="3NjbLV-J0CDQwwyRlYav-34" vertex="1">
                    <mxGeometry y="86" width="140" height="20" as="geometry"/>
                </mxCell>
                <mxCell id="42" value="DetalleCompra" style="swimlane;fontStyle=0;childLayout=stackLayout;horizontal=1;startSize=26;fillColor=none;horizontalStack=0;resizeParent=1;resizeParentMax=0;resizeLast=0;collapsible=1;marginBottom=0;" vertex="1" parent="130">
                    <mxGeometry x="530" y="8" width="170" height="146" as="geometry"/>
                </mxCell>
                <mxCell id="36" value="Id: int" style="text;html=1;strokeColor=none;fillColor=none;align=left;verticalAlign=top;whiteSpace=wrap;rounded=0;" vertex="1" parent="42">
                    <mxGeometry y="26" width="170" height="20" as="geometry"/>
                </mxCell>
                <mxCell id="41" value="PrecioUnidad: decimal" style="text;html=1;strokeColor=none;fillColor=none;align=left;verticalAlign=top;whiteSpace=wrap;rounded=0;" vertex="1" parent="42">
                    <mxGeometry y="46" width="170" height="20" as="geometry"/>
                </mxCell>
                <mxCell id="40" value="Material: Material" style="text;html=1;strokeColor=none;fillColor=none;align=left;verticalAlign=top;whiteSpace=wrap;rounded=0;" vertex="1" parent="42">
                    <mxGeometry y="66" width="170" height="20" as="geometry"/>
                </mxCell>
                <mxCell id="39" value="MaterialId: int" style="text;html=1;strokeColor=none;fillColor=none;align=left;verticalAlign=top;whiteSpace=wrap;rounded=0;" vertex="1" parent="42">
                    <mxGeometry y="86" width="170" height="20" as="geometry"/>
                </mxCell>
                <mxCell id="38" value="Compra: Compra" style="text;html=1;strokeColor=none;fillColor=none;align=left;verticalAlign=top;whiteSpace=wrap;rounded=0;" vertex="1" parent="42">
                    <mxGeometry y="106" width="170" height="20" as="geometry"/>
                </mxCell>
                <mxCell id="37" value="CompraId: int" style="text;html=1;strokeColor=none;fillColor=none;align=left;verticalAlign=top;whiteSpace=wrap;rounded=0;" vertex="1" parent="42">
                    <mxGeometry y="126" width="170" height="20" as="geometry"/>
                </mxCell>
                <mxCell id="46" value="DetalleVenta" style="swimlane;fontStyle=0;childLayout=stackLayout;horizontal=1;startSize=26;fillColor=none;horizontalStack=0;resizeParent=1;resizeParentMax=0;resizeLast=0;collapsible=1;marginBottom=0;whiteSpace=wrap;html=1;" vertex="1" parent="130">
                    <mxGeometry x="90" y="320" width="160" height="146" as="geometry"/>
                </mxCell>
                <mxCell id="47" value="+ Id: int" style="text;html=1;strokeColor=none;fillColor=none;align=left;verticalAlign=top;whiteSpace=wrap;rounded=0;" vertex="1" parent="46">
                    <mxGeometry y="26" width="160" height="20" as="geometry"/>
                </mxCell>
                <mxCell id="48" value="+ VentaId: int" style="text;html=1;strokeColor=none;fillColor=none;align=left;verticalAlign=top;whiteSpace=wrap;rounded=0;" vertex="1" parent="46">
                    <mxGeometry y="46" width="160" height="20" as="geometry"/>
                </mxCell>
                <mxCell id="49" value="+ Venta: Venta" style="text;html=1;strokeColor=none;fillColor=none;align=left;verticalAlign=top;whiteSpace=wrap;rounded=0;" vertex="1" parent="46">
                    <mxGeometry y="66" width="160" height="20" as="geometry"/>
                </mxCell>
                <mxCell id="50" value="+ ProductoId: int" style="text;html=1;strokeColor=none;fillColor=none;align=left;verticalAlign=top;whiteSpace=wrap;rounded=0;" vertex="1" parent="46">
                    <mxGeometry y="86" width="160" height="20" as="geometry"/>
                </mxCell>
                <mxCell id="51" value="+ Producto: Producto" style="text;html=1;strokeColor=none;fillColor=none;align=left;verticalAlign=top;whiteSpace=wrap;rounded=0;" vertex="1" parent="46">
                    <mxGeometry y="106" width="160" height="20" as="geometry"/>
                </mxCell>
                <mxCell id="52" value="+ PrecioUnidad: decimal" style="text;html=1;strokeColor=none;fillColor=none;align=left;verticalAlign=top;whiteSpace=wrap;rounded=0;" vertex="1" parent="46">
                    <mxGeometry y="126" width="160" height="20" as="geometry"/>
                </mxCell>
                <mxCell id="59" value="Empleado" style="swimlane;fontStyle=0;childLayout=stackLayout;horizontal=1;startSize=26;fillColor=none;horizontalStack=0;resizeParent=1;resizeParentMax=0;resizeLast=0;collapsible=1;marginBottom=0;whiteSpace=wrap;html=1;" vertex="1" parent="130">
                    <mxGeometry x="220" y="470" width="160" height="126" as="geometry"/>
                </mxCell>
                <mxCell id="60" value="+ Id: int" style="text;html=1;strokeColor=none;fillColor=none;align=left;verticalAlign=top;whiteSpace=wrap;rounded=0;" vertex="1" parent="59">
                    <mxGeometry y="26" width="160" height="20" as="geometry"/>
                </mxCell>
                <mxCell id="61" value="+ Nombre: string" style="text;html=1;strokeColor=none;fillColor=none;align=left;verticalAlign=top;whiteSpace=wrap;rounded=0;" vertex="1" parent="59">
                    <mxGeometry y="46" width="160" height="20" as="geometry"/>
                </mxCell>
                <mxCell id="62" value="+ Apellido: string" style="text;html=1;strokeColor=none;fillColor=none;align=left;verticalAlign=top;whiteSpace=wrap;rounded=0;" vertex="1" parent="59">
                    <mxGeometry y="66" width="160" height="20" as="geometry"/>
                </mxCell>
                <mxCell id="63" value="+ Correo: string" style="text;html=1;strokeColor=none;fillColor=none;align=left;verticalAlign=top;whiteSpace=wrap;rounded=0;" vertex="1" parent="59">
                    <mxGeometry y="86" width="160" height="20" as="geometry"/>
                </mxCell>
                <mxCell id="64" value="+ ContraseÃ±a: string" style="text;html=1;strokeColor=none;fillColor=none;align=left;verticalAlign=top;whiteSpace=wrap;rounded=0;" vertex="1" parent="59">
                    <mxGeometry y="106" width="160" height="20" as="geometry"/>
                </mxCell>
                <mxCell id="65" value="Material" style="swimlane;fontStyle=0;childLayout=stackLayout;horizontal=1;startSize=26;fillColor=none;horizontalStack=0;resizeParent=1;resizeParentMax=0;resizeLast=0;collapsible=1;marginBottom=0;whiteSpace=wrap;html=1;" vertex="1" parent="130">
                    <mxGeometry x="670" y="182" width="160" height="126" as="geometry"/>
                </mxCell>
                <mxCell id="66" value="+ Id: int" style="text;html=1;strokeColor=none;fillColor=none;align=left;verticalAlign=top;whiteSpace=wrap;rounded=0;" vertex="1" parent="65">
                    <mxGeometry y="26" width="160" height="20" as="geometry"/>
                </mxCell>
                <mxCell id="67" value="+ Nombre: string" style="text;html=1;strokeColor=none;fillColor=none;align=left;verticalAlign=top;whiteSpace=wrap;rounded=0;" vertex="1" parent="65">
                    <mxGeometry y="46" width="160" height="20" as="geometry"/>
                </mxCell>
                <mxCell id="68" value="+ Cantidad: int" style="text;html=1;strokeColor=none;fillColor=none;align=left;verticalAlign=top;whiteSpace=wrap;rounded=0;" vertex="1" parent="65">
                    <mxGeometry y="66" width="160" height="20" as="geometry"/>
                </mxCell>
                <mxCell id="69" value="+ ProveedorId: int" style="text;html=1;strokeColor=none;fillColor=none;align=left;verticalAlign=top;whiteSpace=wrap;rounded=0;" vertex="1" parent="65">
                    <mxGeometry y="86" width="160" height="20" as="geometry"/>
                </mxCell>
                <mxCell id="70" value="+ CategoriaId: int" style="text;html=1;strokeColor=none;fillColor=none;align=left;verticalAlign=top;whiteSpace=wrap;rounded=0;" vertex="1" parent="65">
                    <mxGeometry y="106" width="160" height="20" as="geometry"/>
                </mxCell>
                <mxCell id="71" value="Producto" style="swimlane;fontStyle=0;childLayout=stackLayout;horizontal=1;startSize=26;fillColor=none;horizontalStack=0;resizeParent=1;resizeParentMax=0;resizeLast=0;collapsible=1;marginBottom=0;whiteSpace=wrap;html=1;" vertex="1" parent="130">
                    <mxGeometry x="20" y="162" width="160" height="146" as="geometry"/>
                </mxCell>
                <mxCell id="72" value="+ Id: int" style="text;html=1;strokeColor=none;fillColor=none;align=left;verticalAlign=top;whiteSpace=wrap;rounded=0;" vertex="1" parent="71">
                    <mxGeometry y="26" width="160" height="20" as="geometry"/>
                </mxCell>
                <mxCell id="73" value="+ Nombre: string" style="text;html=1;strokeColor=none;fillColor=none;align=left;verticalAlign=top;whiteSpace=wrap;rounded=0;" vertex="1" parent="71">
                    <mxGeometry y="46" width="160" height="20" as="geometry"/>
                </mxCell>
                <mxCell id="74" value="+ Descripcion: string" style="text;html=1;strokeColor=none;fillColor=none;align=left;verticalAlign=top;whiteSpace=wrap;rounded=0;" vertex="1" parent="71">
                    <mxGeometry y="66" width="160" height="20" as="geometry"/>
                </mxCell>
                <mxCell id="75" value="+ CategoriaId: int" style="text;html=1;strokeColor=none;fillColor=none;align=left;verticalAlign=top;whiteSpace=wrap;rounded=0;" vertex="1" parent="71">
                    <mxGeometry y="86" width="160" height="20" as="geometry"/>
                </mxCell>
                <mxCell id="76" value="+ Categoria: Categoria" style="text;html=1;strokeColor=none;fillColor=none;align=left;verticalAlign=top;whiteSpace=wrap;rounded=0;" vertex="1" parent="71">
                    <mxGeometry y="106" width="160" height="20" as="geometry"/>
                </mxCell>
                <mxCell id="77" value="+ Precio: double" style="text;html=1;strokeColor=none;fillColor=none;align=left;verticalAlign=top;whiteSpace=wrap;rounded=0;" vertex="1" parent="71">
                    <mxGeometry y="126" width="160" height="20" as="geometry"/>
                </mxCell>
                <mxCell id="78" value="Proveedor" style="swimlane;fontStyle=0;childLayout=stackLayout;horizontal=1;startSize=26;fillColor=none;horizontalStack=0;resizeParent=1;resizeParentMax=0;resizeLast=0;collapsible=1;marginBottom=0;whiteSpace=wrap;html=1;" vertex="1" parent="130">
                    <mxGeometry x="560" y="430" width="160" height="146" as="geometry"/>
                </mxCell>
                <mxCell id="79" value="+ Id: int" style="text;html=1;strokeColor=none;fillColor=none;align=left;verticalAlign=top;whiteSpace=wrap;rounded=0;" vertex="1" parent="78">
                    <mxGeometry y="26" width="160" height="20" as="geometry"/>
                </mxCell>
                <mxCell id="80" value="+ Nombre: string" style="text;html=1;strokeColor=none;fillColor=none;align=left;verticalAlign=top;whiteSpace=wrap;rounded=0;" vertex="1" parent="78">
                    <mxGeometry y="46" width="160" height="20" as="geometry"/>
                </mxCell>
                <mxCell id="81" value="+ Apellido: string" style="text;html=1;strokeColor=none;fillColor=none;align=left;verticalAlign=top;whiteSpace=wrap;rounded=0;" vertex="1" parent="78">
                    <mxGeometry y="66" width="160" height="20" as="geometry"/>
                </mxCell>
                <mxCell id="82" value="+ Telefono: string" style="text;html=1;strokeColor=none;fillColor=none;align=left;verticalAlign=top;whiteSpace=wrap;rounded=0;" vertex="1" parent="78">
                    <mxGeometry y="86" width="160" height="20" as="geometry"/>
                </mxCell>
                <mxCell id="83" value="+ Correo: string" style="text;html=1;strokeColor=none;fillColor=none;align=left;verticalAlign=top;whiteSpace=wrap;rounded=0;" vertex="1" parent="78">
                    <mxGeometry y="106" width="160" height="20" as="geometry"/>
                </mxCell>
                <mxCell id="84" value="+ Direccion: string" style="text;html=1;strokeColor=none;fillColor=none;align=left;verticalAlign=top;whiteSpace=wrap;rounded=0;" vertex="1" parent="78">
                    <mxGeometry y="126" width="160" height="20" as="geometry"/>
                </mxCell>
                <mxCell id="85" value="Puesto" style="swimlane;fontStyle=0;childLayout=stackLayout;horizontal=1;startSize=26;fillColor=none;horizontalStack=0;resizeParent=1;resizeParentMax=0;resizeLast=0;collapsible=1;marginBottom=0;whiteSpace=wrap;html=1;" vertex="1" parent="130">
                    <mxGeometry x="390" y="417" width="160" height="106" as="geometry"/>
                </mxCell>
                <mxCell id="86" value="+ Id: int" style="text;html=1;strokeColor=none;fillColor=none;align=left;verticalAlign=top;whiteSpace=wrap;rounded=0;" vertex="1" parent="85">
                    <mxGeometry y="26" width="160" height="20" as="geometry"/>
                </mxCell>
                <mxCell id="87" value="+ Nombre: string" style="text;html=1;strokeColor=none;fillColor=none;align=left;verticalAlign=top;whiteSpace=wrap;rounded=0;" vertex="1" parent="85">
                    <mxGeometry y="46" width="160" height="20" as="geometry"/>
                </mxCell>
                <mxCell id="88" value="+ Sueldo: decimal" style="text;html=1;strokeColor=none;fillColor=none;align=left;verticalAlign=top;whiteSpace=wrap;rounded=0;" vertex="1" parent="85">
                    <mxGeometry y="66" width="160" height="20" as="geometry"/>
                </mxCell>
                <mxCell id="89" value="+ empleados: List&lt;Empleado&gt;" style="text;html=1;strokeColor=none;fillColor=none;align=left;verticalAlign=top;whiteSpace=wrap;rounded=0;" vertex="1" parent="85">
                    <mxGeometry y="86" width="160" height="20" as="geometry"/>
                </mxCell>
                <mxCell id="104" value="Registros" style="html=1;fontStyle=1" vertex="1" parent="130">
                    <mxGeometry x="390" y="240" width="110" height="50" as="geometry"/>
                </mxCell>
                <mxCell id="120" value="" style="endArrow=none;html=1;exitX=0.5;exitY=0;exitDx=0;exitDy=0;" edge="1" parent="130" source="104" target="3NjbLV-J0CDQwwyRlYav-20">
                    <mxGeometry width="50" height="50" relative="1" as="geometry">
                        <mxPoint x="420" y="260" as="sourcePoint"/>
                        <mxPoint x="470" y="210" as="targetPoint"/>
                    </mxGeometry>
                </mxCell>
                <mxCell id="121" value="" style="endArrow=none;html=1;" edge="1" parent="130" source="104" target="42">
                    <mxGeometry width="50" height="50" relative="1" as="geometry">
                        <mxPoint x="550" y="270" as="sourcePoint"/>
                        <mxPoint x="600" y="220" as="targetPoint"/>
                    </mxGeometry>
                </mxCell>
                <mxCell id="122" value="" style="endArrow=none;html=1;" edge="1" parent="130" source="104" target="65">
                    <mxGeometry width="50" height="50" relative="1" as="geometry">
                        <mxPoint x="560" y="310" as="sourcePoint"/>
                        <mxPoint x="610" y="260" as="targetPoint"/>
                    </mxGeometry>
                </mxCell>
                <mxCell id="123" value="" style="endArrow=none;html=1;" edge="1" parent="130" source="104" target="3NjbLV-J0CDQwwyRlYav-34">
                    <mxGeometry width="50" height="50" relative="1" as="geometry">
                        <mxPoint x="480" y="370" as="sourcePoint"/>
                        <mxPoint x="530" y="320" as="targetPoint"/>
                    </mxGeometry>
                </mxCell>
                <mxCell id="124" value="" style="endArrow=none;html=1;" edge="1" parent="130" source="78" target="104">
                    <mxGeometry width="50" height="50" relative="1" as="geometry">
                        <mxPoint x="400" y="370" as="sourcePoint"/>
                        <mxPoint x="450" y="320" as="targetPoint"/>
                    </mxGeometry>
                </mxCell>
                <mxCell id="125" value="" style="endArrow=none;html=1;" edge="1" parent="130" source="85" target="104">
                    <mxGeometry width="50" height="50" relative="1" as="geometry">
                        <mxPoint x="370" y="380" as="sourcePoint"/>
                        <mxPoint x="420" y="330" as="targetPoint"/>
                    </mxGeometry>
                </mxCell>
                <mxCell id="127" value="" style="endArrow=none;html=1;" edge="1" parent="130" source="59" target="104">
                    <mxGeometry width="50" height="50" relative="1" as="geometry">
                        <mxPoint x="260" y="370" as="sourcePoint"/>
                        <mxPoint x="310" y="320" as="targetPoint"/>
                    </mxGeometry>
                </mxCell>
                <mxCell id="128" value="" style="endArrow=none;html=1;" edge="1" parent="130" source="46" target="104">
                    <mxGeometry width="50" height="50" relative="1" as="geometry">
                        <mxPoint x="260" y="310" as="sourcePoint"/>
                        <mxPoint x="310" y="260" as="targetPoint"/>
                    </mxGeometry>
                </mxCell>
                <mxCell id="129" value="" style="endArrow=none;html=1;" edge="1" parent="130" source="71" target="104">
                    <mxGeometry width="50" height="50" relative="1" as="geometry">
                        <mxPoint x="300" y="230" as="sourcePoint"/>
                        <mxPoint x="350" y="180" as="targetPoint"/>
                    </mxGeometry>
                </mxCell>
                <mxCell id="29" value="Compra" style="swimlane;fontStyle=0;childLayout=stackLayout;horizontal=1;startSize=26;fillColor=none;horizontalStack=0;resizeParent=1;resizeParentMax=0;resizeLast=0;collapsible=1;marginBottom=0;" vertex="1" parent="130">
                    <mxGeometry x="190" width="160" height="166" as="geometry"/>
                </mxCell>
                <mxCell id="21" value="+ Id: int?" style="text;html=1;strokeColor=none;fillColor=none;align=left;verticalAlign=top;whiteSpace=wrap;rounded=0;" vertex="1" parent="29">
                    <mxGeometry y="26" width="160" height="20" as="geometry"/>
                </mxCell>
                <mxCell id="27" value="+ Importe: double?" style="text;html=1;strokeColor=none;fillColor=none;align=left;verticalAlign=top;whiteSpace=wrap;rounded=0;" vertex="1" parent="29">
                    <mxGeometry y="46" width="160" height="20" as="geometry"/>
                </mxCell>
                <mxCell id="26" value="+ Proveedor: Proveedor" style="text;html=1;strokeColor=none;fillColor=none;align=left;verticalAlign=top;whiteSpace=wrap;rounded=0;" vertex="1" parent="29">
                    <mxGeometry y="66" width="160" height="20" as="geometry"/>
                </mxCell>
                <mxCell id="25" value="+ ProveedorId: int?" style="text;html=1;strokeColor=none;fillColor=none;align=left;verticalAlign=top;whiteSpace=wrap;rounded=0;" vertex="1" parent="29">
                    <mxGeometry y="86" width="160" height="20" as="geometry"/>
                </mxCell>
                <mxCell id="24" value="+ Empleado: Empleado" style="text;html=1;strokeColor=none;fillColor=none;align=left;verticalAlign=top;whiteSpace=wrap;rounded=0;" vertex="1" parent="29">
                    <mxGeometry y="106" width="160" height="20" as="geometry"/>
                </mxCell>
                <mxCell id="23" value="+ EmpleadoId: int?" style="text;html=1;strokeColor=none;fillColor=none;align=left;verticalAlign=top;whiteSpace=wrap;rounded=0;" vertex="1" parent="29">
                    <mxGeometry y="126" width="160" height="20" as="geometry"/>
                </mxCell>
                <mxCell id="22" value="+ FechaCompra: DateOnly?" style="text;html=1;strokeColor=none;fillColor=none;align=left;verticalAlign=top;whiteSpace=wrap;rounded=0;" vertex="1" parent="29">
                    <mxGeometry y="146" width="160" height="20" as="geometry"/>
                </mxCell>
                <mxCell id="126" value="" style="endArrow=none;html=1;" edge="1" parent="130" source="29" target="104">
                    <mxGeometry width="50" height="50" relative="1" as="geometry">
                        <mxPoint x="290" y="350" as="sourcePoint"/>
                        <mxPoint x="340" y="300" as="targetPoint"/>
                    </mxGeometry>
                </mxCell>
                <mxCell id="132" value="" style="endArrow=none;html=1;" edge="1" parent="1" source="98" target="71">
                    <mxGeometry width="50" height="50" relative="1" as="geometry">
                        <mxPoint x="580" y="350" as="sourcePoint"/>
                        <mxPoint x="630" y="300" as="targetPoint"/>
                    </mxGeometry>
                </mxCell>
            </root>
        </mxGraphModel>
    </diagram>
</mxfile>